<?xml version="1.0" standalone="no"?>
<!DOCTYPE svg PUBLIC "-//W3C//DTD SVG 20010904//EN"
 "http://www.w3.org/TR/2001/REC-SVG-20010904/DTD/svg10.dtd">
<svg version="1.0" xmlns="http://www.w3.org/2000/svg"
 width="500.000000pt" height="500.000000pt" viewBox="0 0 500.000000 500.000000"
 preserveAspectRatio="xMidYMid meet">

<g transform="translate(0.000000,500.000000) scale(0.100000,-0.100000)"
fill="#000000" stroke="none">
<path d="M1248 4743 c-81 -89 -177 -280 -228 -458 -34 -117 -48 -194 -61 -340
-11 -121 -10 -160 4 -285 9 -80 26 -179 37 -220 48 -175 48 -166 -2 -250 -188
-318 -341 -712 -393 -1014 -50 -292 -38 -333 76 -247 28 21 81 53 118 71 36
18 70 35 75 38 5 3 6 -5 2 -19 -43 -150 -48 -185 -43 -304 3 -66 13 -149 22
-185 32 -122 107 -263 213 -403 36 -48 49 -58 70 -55 30 4 37 15 51 95 6 34
17 76 24 93 13 30 14 29 41 -67 78 -278 263 -526 558 -748 143 -108 326 -217
358 -213 l25 3 5 258 5 257 124 -160 c116 -151 139 -172 166 -152 6 4 62 73
125 155 l115 147 3 -242 c1 -158 6 -246 13 -255 21 -24 54 -13 164 56 176 110
301 208 425 331 195 194 283 347 369 639 6 21 10 14 29 -45 12 -38 22 -81 22
-95 0 -37 22 -62 50 -57 62 8 240 324 281 496 27 116 23 274 -11 391 -11 40
-19 75 -17 77 6 7 157 -75 203 -110 49 -38 88 -46 98 -21 10 27 -23 251 -60
405 -52 218 -143 451 -296 754 l-110 220 25 100 c70 280 81 419 52 639 -36
278 -148 566 -276 712 -37 42 -50 42 -131 -6 -181 -107 -453 -376 -596 -591
-24 -37 -48 -65 -53 -63 -30 19 -326 55 -452 55 -106 0 -250 -14 -372 -37
l-89 -16 -21 28 c-211 296 -369 459 -579 599 -54 36 -106 66 -115 66 -10 0
-29 -12 -43 -27z m80 -80 c195 -123 408 -336 566 -564 36 -53 73 -100 81 -103
9 -3 41 1 73 9 226 58 587 58 835 1 38 -9 75 -13 82 -9 7 5 36 42 63 83 133
203 362 440 538 555 37 25 72 45 76 45 23 0 142 -224 183 -345 66 -196 80
-285 80 -515 -1 -203 -9 -262 -72 -486 l-17 -62 120 -238 c66 -132 127 -257
136 -279 9 -22 26 -61 37 -86 67 -160 147 -450 167 -608 l6 -55 -28 19 c-90
59 -223 115 -274 115 -43 0 -48 -31 -16 -90 43 -78 66 -188 66 -311 0 -110
-11 -168 -50 -271 -30 -82 -135 -268 -150 -268 -3 0 -12 21 -19 48 -21 73 -86
208 -105 215 -39 15 -48 -2 -61 -113 -31 -270 -215 -563 -495 -790 -95 -77
-304 -220 -321 -220 -5 0 -9 115 -9 269 0 267 0 270 -22 285 -20 14 -24 14
-43 -4 -11 -10 -76 -93 -145 -184 -69 -91 -130 -165 -136 -165 -7 -1 -73 79
-148 178 -74 98 -143 182 -153 185 -12 5 -24 0 -36 -15 -17 -21 -18 -44 -16
-281 1 -142 -1 -261 -4 -264 -8 -8 -174 97 -279 178 -306 235 -489 514 -543
828 -18 105 -31 128 -63 111 -25 -13 -73 -110 -99 -198 -10 -35 -20 -63 -23
-63 -10 0 -109 164 -135 223 -49 111 -65 192 -65 322 0 133 11 188 60 294 27
58 31 73 20 86 -17 21 -44 19 -124 -10 -68 -25 -121 -51 -180 -90 l-29 -19 7
64 c33 293 175 681 389 1064 37 65 67 128 67 140 0 11 -11 58 -25 103 -50 171
-59 246 -59 453 0 161 4 213 22 297 40 185 110 363 198 501 19 28 36 52 39 52
3 0 18 -8 33 -17z"/>
<path d="M1316 4378 c-14 -23 -41 -109 -68 -218 -8 -36 -13 -112 -12 -220 1
-146 4 -175 27 -253 29 -100 49 -137 76 -137 41 0 43 23 9 121 -31 92 -32 98
-32 274 -1 161 2 189 23 265 l24 84 62 -67 c73 -78 169 -215 214 -305 29 -57
35 -63 59 -60 19 2 28 10 30 25 6 39 -85 198 -181 318 -68 85 -181 195 -199
195 -10 0 -24 -10 -32 -22z"/>
<path d="M3497 4319 c-97 -100 -183 -215 -243 -324 -53 -98 -55 -130 -9 -130
25 0 33 7 50 40 60 121 184 295 257 363 l26 23 20 -78 c49 -182 46 -385 -9
-546 -33 -96 -30 -117 17 -117 28 0 39 22 75 150 20 73 23 107 24 245 0 164
-4 194 -51 352 -23 76 -41 103 -71 103 -4 0 -43 -36 -86 -81z"/>
<path d="M2329 3865 c-52 -28 -57 -97 -10 -139 20 -18 21 -29 21 -174 l0 -154
65 -67 64 -66 71 70 c70 69 70 70 70 124 0 47 4 58 25 76 36 29 43 82 15 118
-17 22 -30 27 -64 27 -82 0 -115 -75 -61 -138 18 -22 25 -42 25 -74 0 -38 -5
-49 -40 -83 l-40 -39 -35 34 -35 34 0 148 c0 138 1 148 20 158 51 27 48 109
-3 141 -38 22 -53 23 -88 4z m66 -75 c0 -18 -6 -26 -21 -28 -23 -3 -37 18 -27
44 10 25 48 13 48 -16z m210 -190 c0 -30 -32 -35 -49 -7 -8 14 -8 20 4 27 24
16 45 7 45 -20z"/>
<path d="M2042 3814 c-15 -7 -42 -57 -42 -78 0 -8 14 -31 30 -49 28 -33 30
-39 30 -121 l0 -86 152 -149 152 -150 3 -124 2 -124 -29 -28 c-59 -57 -28
-145 51 -145 21 0 44 8 55 19 20 18 21 18 43 0 13 -11 39 -19 60 -19 79 0 111
93 51 143 l-30 26 0 123 0 123 155 155 155 155 0 86 c0 78 2 88 24 108 32 30
40 65 22 100 -17 32 -34 41 -79 41 -80 -1 -109 -89 -48 -144 18 -16 21 -30 21
-95 l0 -77 -150 -149 c-82 -82 -150 -153 -151 -159 0 -6 0 -70 1 -142 1 -130
1 -131 -24 -148 -24 -15 -28 -15 -51 0 -25 16 -25 18 -25 158 l0 141 -150 150
-150 150 0 76 c0 68 2 78 25 97 35 30 41 65 18 104 -17 29 -25 33 -63 35 -25
1 -51 -1 -58 -3z m76 -70 c3 -23 -18 -37 -43 -28 -16 6 -20 35 -8 48 14 14 48
1 51 -20z m760 0 c3 -23 -18 -37 -43 -28 -16 6 -20 35 -8 48 14 14 48 1 51
-20z m-463 -894 c8 -26 -1 -40 -26 -40 -22 0 -34 22 -25 45 8 22 44 18 51 -5z
m155 5 c10 -12 10 -18 0 -30 -25 -30 -61 -7 -46 30 3 8 12 15 19 15 8 0 20 -7
27 -15z"/>
<path d="M1875 3504 c-29 -31 -31 -53 -10 -94 16 -32 41 -43 84 -38 25 2 48
-15 170 -132 l141 -135 0 -82 c0 -82 0 -83 25 -83 25 0 25 0 25 99 l0 98 -145
139 c-133 128 -145 142 -145 175 0 75 -94 109 -145 53z m84 -37 c15 -19 -10
-53 -33 -44 -16 6 -22 38 -9 50 10 11 30 8 42 -6z"/>
<path d="M2945 3505 c-15 -14 -25 -36 -25 -52 0 -23 -27 -55 -145 -173 l-145
-145 0 -96 c0 -68 4 -98 13 -101 30 -12 37 4 37 85 l0 82 136 136 136 136 43
-5 c37 -4 47 -1 69 21 32 32 34 74 5 111 -28 36 -89 37 -124 1z m85 -40 c10
-12 10 -18 0 -30 -25 -30 -61 -7 -46 30 3 8 12 15 19 15 8 0 20 -7 27 -15z"/>
<path d="M1720 3190 c-80 -13 -169 -44 -263 -90 -87 -44 -104 -55 -126 -83
-12 -15 -11 -20 4 -37 23 -25 36 -25 67 -1 45 36 163 90 252 116 231 66 391 8
483 -176 104 -207 125 -434 73 -769 -37 -240 -51 -372 -39 -387 16 -18 24 -17
109 17 67 26 87 29 185 29 94 1 120 -3 180 -25 95 -35 110 -38 122 -22 12 15
0 130 -41 418 -47 324 -27 529 74 731 43 88 88 140 151 174 46 25 68 30 144
33 135 6 275 -34 417 -119 74 -45 108 -46 108 -4 0 44 -158 132 -316 177 -95
26 -265 31 -329 9 -117 -40 -206 -138 -268 -296 -47 -119 -65 -192 -78 -316
-13 -126 -7 -213 32 -470 16 -108 29 -208 29 -222 l0 -25 -47 16 c-68 22 -292
22 -350 -1 l-43 -16 0 28 c0 16 14 123 30 239 50 349 40 536 -40 753 -57 159
-160 275 -272 308 -52 16 -182 22 -248 11z"/>
<path d="M1637 2886 c-31 -7 -62 -17 -68 -23 -16 -16 -7 -47 18 -57 13 -6 33
-38 53 -83 39 -89 91 -149 161 -188 50 -28 61 -30 162 -30 l107 0 6 -33 c11
-59 -2 -119 -49 -214 -46 -93 -107 -289 -129 -420 -7 -38 -15 -68 -18 -68 -3
0 -27 35 -55 78 -60 92 -224 261 -355 365 -110 86 -130 95 -154 68 -24 -26
-12 -42 86 -116 184 -138 353 -324 418 -461 18 -38 35 -98 45 -160 25 -156 81
-257 170 -310 26 -15 54 -43 69 -68 30 -52 111 -126 163 -151 207 -98 472 -27
574 154 13 24 40 52 65 66 85 50 144 156 170 308 20 117 40 168 100 259 61 92
240 272 367 367 97 73 113 96 82 121 -22 18 -49 4 -154 -78 -122 -94 -298
-273 -358 -365 l-52 -77 -9 37 c-5 21 -15 63 -22 93 -30 137 -75 273 -121 371
-46 98 -50 112 -47 169 l3 63 110 1 c95 1 117 5 159 26 69 34 119 89 166 183
23 45 50 85 63 91 24 13 34 43 19 58 -16 16 -131 37 -200 38 -215 1 -350 -138
-394 -405 -14 -89 -3 -150 46 -247 84 -165 166 -487 166 -648 0 -160 -74 -284
-195 -330 -47 -18 -173 -15 -222 5 -24 9 -43 20 -43 24 0 3 19 17 42 30 63 36
134 107 158 159 27 56 23 129 -7 170 -69 93 -343 120 -470 46 -41 -23 -83 -88
-83 -128 0 -83 70 -183 169 -241 28 -16 49 -34 48 -39 -12 -37 -201 -51 -271
-21 -117 50 -186 167 -186 315 0 166 86 507 162 648 50 94 60 151 43 267 -16
110 -37 173 -80 241 -80 124 -247 179 -428 140z m217 -77 c64 -16 135 -75 168
-139 34 -66 35 -86 6 -94 -72 -19 -181 9 -239 61 -35 32 -99 143 -99 172 0 14
107 15 164 0z m1396 -8 c0 -34 -62 -141 -96 -167 -67 -52 -155 -73 -233 -58
-29 6 -32 10 -26 33 10 43 68 131 103 157 48 38 99 53 180 53 64 1 72 -1 72
-18z m-672 -1143 c72 -17 102 -42 102 -84 0 -48 -21 -84 -75 -132 -69 -61
-119 -83 -158 -70 -39 13 -81 41 -125 82 -93 86 -79 180 32 205 59 13 169 13
224 -1z m-47 -445 c43 -18 91 -28 144 -32 l80 -6 -38 -37 c-62 -60 -118 -81
-227 -86 -116 -5 -189 18 -258 82 l-45 41 79 6 c50 4 101 16 139 32 33 14 60
26 61 26 0 1 29 -11 65 -26z"/>
</g>
</svg>
